<mxfile host="app.diagrams.net" modified="2023-03-17T04:32:04.269Z" agent="5.0 (Macintosh; Intel Mac OS X 10_15_7) AppleWebKit/537.36 (KHTML, like Gecko) Chrome/111.0.0.0 Safari/537.36" etag="npQf8-TOEYQh7WIugRfr" version="21.0.6" type="github" pages="2">
  <diagram name="第 1 页" id="NbOTUN8-V1Asu5dgZgVQ">
    <mxGraphModel dx="1234" dy="547" grid="1" gridSize="10" guides="1" tooltips="1" connect="1" arrows="1" fold="1" page="1" pageScale="1" pageWidth="827" pageHeight="1169" math="0" shadow="0">
      <root>
        <mxCell id="0" />
        <mxCell id="1" parent="0" />
        <mxCell id="8EqtSxJ1U76VUGLZXkBe-18" value="4.将获取到的订单信息&lt;br&gt;根据获取结算服务数量&lt;br&gt;划分任务推送到对应主题" style="edgeStyle=orthogonalEdgeStyle;rounded=0;orthogonalLoop=1;jettySize=auto;html=1;entryX=0.144;entryY=1.031;entryDx=0;entryDy=0;entryPerimeter=0;" parent="1" source="8EqtSxJ1U76VUGLZXkBe-3" target="8EqtSxJ1U76VUGLZXkBe-26" edge="1">
          <mxGeometry relative="1" as="geometry" />
        </mxCell>
        <mxCell id="8EqtSxJ1U76VUGLZXkBe-3" value="分发服务" style="swimlane;startSize=0;" parent="1" vertex="1">
          <mxGeometry x="120" y="210" width="200" height="200" as="geometry" />
        </mxCell>
        <mxCell id="8EqtSxJ1U76VUGLZXkBe-1" value="node1" style="rounded=1;whiteSpace=wrap;html=1;" parent="8EqtSxJ1U76VUGLZXkBe-3" vertex="1">
          <mxGeometry x="40" y="20" width="120" height="60" as="geometry" />
        </mxCell>
        <mxCell id="8EqtSxJ1U76VUGLZXkBe-4" value="node2" style="rounded=1;whiteSpace=wrap;html=1;" parent="8EqtSxJ1U76VUGLZXkBe-3" vertex="1">
          <mxGeometry x="40" y="100" width="120" height="60" as="geometry" />
        </mxCell>
        <mxCell id="8EqtSxJ1U76VUGLZXkBe-17" value="3.订阅游戏时间&lt;br style=&quot;border-color: var(--border-color);&quot;&gt;监听到游戏发球事件&lt;br style=&quot;border-color: var(--border-color);&quot;&gt;获取当期所有订单信息" style="edgeStyle=orthogonalEdgeStyle;rounded=0;orthogonalLoop=1;jettySize=auto;html=1;entryX=1;entryY=0.25;entryDx=0;entryDy=0;exitX=0.25;exitY=1;exitDx=0;exitDy=0;" parent="1" source="8EqtSxJ1U76VUGLZXkBe-26" target="8EqtSxJ1U76VUGLZXkBe-3" edge="1">
          <mxGeometry x="-0.276" relative="1" as="geometry">
            <Array as="points">
              <mxPoint x="420" y="140" />
              <mxPoint x="420" y="260" />
            </Array>
            <mxPoint as="offset" />
          </mxGeometry>
        </mxCell>
        <mxCell id="8EqtSxJ1U76VUGLZXkBe-25" value="通知任务完成&lt;br&gt;1.如果未全部完成&lt;br&gt;再进行补偿" style="edgeStyle=orthogonalEdgeStyle;rounded=0;orthogonalLoop=1;jettySize=auto;html=1;entryX=0.5;entryY=1;entryDx=0;entryDy=0;" parent="1" source="8EqtSxJ1U76VUGLZXkBe-8" target="8EqtSxJ1U76VUGLZXkBe-3" edge="1">
          <mxGeometry relative="1" as="geometry">
            <Array as="points">
              <mxPoint x="700" y="470" />
              <mxPoint x="220" y="470" />
            </Array>
          </mxGeometry>
        </mxCell>
        <mxCell id="8EqtSxJ1U76VUGLZXkBe-27" value="1.订阅节点相关主题&lt;br&gt;2.实时数据处理(排行榜 推nats 写redis)&lt;br&gt;3.结算数据处理(帐变 历史排行榜写es 结算内容mysql)" style="edgeStyle=orthogonalEdgeStyle;rounded=0;orthogonalLoop=1;jettySize=auto;html=1;entryX=0.457;entryY=1.015;entryDx=0;entryDy=0;entryPerimeter=0;" parent="1" source="8EqtSxJ1U76VUGLZXkBe-8" target="8EqtSxJ1U76VUGLZXkBe-26" edge="1">
          <mxGeometry x="-0.2391" y="65" relative="1" as="geometry">
            <Array as="points">
              <mxPoint x="545" y="370" />
            </Array>
            <mxPoint as="offset" />
          </mxGeometry>
        </mxCell>
        <mxCell id="8EqtSxJ1U76VUGLZXkBe-8" value="结算服务" style="swimlane;startSize=0;" parent="1" vertex="1">
          <mxGeometry x="600" y="210" width="200" height="200" as="geometry" />
        </mxCell>
        <mxCell id="8EqtSxJ1U76VUGLZXkBe-15" value="node1" style="rounded=1;whiteSpace=wrap;html=1;" parent="8EqtSxJ1U76VUGLZXkBe-8" vertex="1">
          <mxGeometry x="40" y="20" width="120" height="60" as="geometry" />
        </mxCell>
        <mxCell id="8EqtSxJ1U76VUGLZXkBe-16" value="node1" style="rounded=1;whiteSpace=wrap;html=1;" parent="8EqtSxJ1U76VUGLZXkBe-8" vertex="1">
          <mxGeometry x="40" y="90" width="120" height="60" as="geometry" />
        </mxCell>
        <mxCell id="8EqtSxJ1U76VUGLZXkBe-13" value="1.启动注册到etcd 用作服务发现&lt;br&gt;2.获取在线结算服务节点" style="text;html=1;strokeColor=none;fillColor=none;align=center;verticalAlign=middle;whiteSpace=wrap;rounded=0;" parent="1" vertex="1">
          <mxGeometry x="120" y="160" width="60" height="30" as="geometry" />
        </mxCell>
        <mxCell id="8EqtSxJ1U76VUGLZXkBe-14" value="启动注册到etcd 用作服务发现" style="text;html=1;strokeColor=none;fillColor=none;align=center;verticalAlign=middle;whiteSpace=wrap;rounded=0;" parent="1" vertex="1">
          <mxGeometry x="590" y="180" width="60" height="30" as="geometry" />
        </mxCell>
        <mxCell id="8EqtSxJ1U76VUGLZXkBe-26" value="中间件" style="swimlane;startSize=0;" parent="1" vertex="1">
          <mxGeometry x="314" y="10" width="506" height="130" as="geometry" />
        </mxCell>
        <mxCell id="8EqtSxJ1U76VUGLZXkBe-23" value="elasticsearch" style="shape=cylinder3;whiteSpace=wrap;html=1;boundedLbl=1;backgroundOutline=1;size=15;" parent="8EqtSxJ1U76VUGLZXkBe-26" vertex="1">
          <mxGeometry x="363" y="10" width="60" height="80" as="geometry" />
        </mxCell>
        <mxCell id="8EqtSxJ1U76VUGLZXkBe-21" value="mysql" style="shape=cylinder3;whiteSpace=wrap;html=1;boundedLbl=1;backgroundOutline=1;size=15;" parent="8EqtSxJ1U76VUGLZXkBe-26" vertex="1">
          <mxGeometry x="293" y="10" width="60" height="80" as="geometry" />
        </mxCell>
        <mxCell id="8EqtSxJ1U76VUGLZXkBe-12" value="etcd" style="shape=cylinder3;whiteSpace=wrap;html=1;boundedLbl=1;backgroundOutline=1;size=15;" parent="8EqtSxJ1U76VUGLZXkBe-26" vertex="1">
          <mxGeometry x="223" y="10" width="60" height="80" as="geometry" />
        </mxCell>
        <mxCell id="8EqtSxJ1U76VUGLZXkBe-9" value="redis" style="shape=cylinder3;whiteSpace=wrap;html=1;boundedLbl=1;backgroundOutline=1;size=15;" parent="8EqtSxJ1U76VUGLZXkBe-26" vertex="1">
          <mxGeometry x="143" y="10" width="60" height="80" as="geometry" />
        </mxCell>
        <mxCell id="8EqtSxJ1U76VUGLZXkBe-5" value="nats" style="ellipse;shape=cloud;whiteSpace=wrap;html=1;" parent="8EqtSxJ1U76VUGLZXkBe-26" vertex="1">
          <mxGeometry x="13" y="10" width="120" height="80" as="geometry" />
        </mxCell>
      </root>
    </mxGraphModel>
  </diagram>
  <diagram id="qMjMx3C86a82iwGKrl_q" name="第 2 页">
    <mxGraphModel dx="2061" dy="547" grid="1" gridSize="10" guides="1" tooltips="1" connect="1" arrows="1" fold="1" page="1" pageScale="1" pageWidth="827" pageHeight="1169" math="0" shadow="0">
      <root>
        <mxCell id="0" />
        <mxCell id="1" parent="0" />
        <mxCell id="AWzn9kfPtikDPwNvXIya-7" value="begin&amp;nbsp;" style="edgeStyle=orthogonalEdgeStyle;rounded=0;orthogonalLoop=1;jettySize=auto;html=1;entryX=0.5;entryY=0;entryDx=0;entryDy=0;exitX=0.55;exitY=0.95;exitDx=0;exitDy=0;exitPerimeter=0;" edge="1" parent="1" source="AWzn9kfPtikDPwNvXIya-16" target="AWzn9kfPtikDPwNvXIya-8">
          <mxGeometry relative="1" as="geometry">
            <mxPoint x="-10" y="340" as="targetPoint" />
            <mxPoint x="50" y="180" as="sourcePoint" />
            <Array as="points">
              <mxPoint x="50" y="186" />
              <mxPoint x="50" y="280" />
              <mxPoint x="-110" y="280" />
              <mxPoint x="-110" y="400" />
            </Array>
            <mxPoint as="offset" />
          </mxGeometry>
        </mxCell>
        <mxCell id="AWzn9kfPtikDPwNvXIya-10" style="edgeStyle=orthogonalEdgeStyle;rounded=0;orthogonalLoop=1;jettySize=auto;html=1;entryX=0.5;entryY=0;entryDx=0;entryDy=0;" edge="1" parent="1" source="AWzn9kfPtikDPwNvXIya-16" target="AWzn9kfPtikDPwNvXIya-9">
          <mxGeometry relative="1" as="geometry">
            <mxPoint x="50" y="180" as="sourcePoint" />
          </mxGeometry>
        </mxCell>
        <mxCell id="AWzn9kfPtikDPwNvXIya-11" value="开球" style="edgeLabel;html=1;align=center;verticalAlign=middle;resizable=0;points=[];" vertex="1" connectable="0" parent="AWzn9kfPtikDPwNvXIya-10">
          <mxGeometry x="0.0444" y="1" relative="1" as="geometry">
            <mxPoint as="offset" />
          </mxGeometry>
        </mxCell>
        <mxCell id="AWzn9kfPtikDPwNvXIya-8" value="获取当期投注订单" style="shape=process;whiteSpace=wrap;html=1;backgroundOutline=1;" vertex="1" parent="1">
          <mxGeometry x="-170" y="350" width="120" height="60" as="geometry" />
        </mxCell>
        <mxCell id="AWzn9kfPtikDPwNvXIya-24" value="" style="edgeStyle=orthogonalEdgeStyle;rounded=0;orthogonalLoop=1;jettySize=auto;html=1;" edge="1" parent="1" source="AWzn9kfPtikDPwNvXIya-9" target="AWzn9kfPtikDPwNvXIya-23">
          <mxGeometry relative="1" as="geometry" />
        </mxCell>
        <mxCell id="AWzn9kfPtikDPwNvXIya-9" value="标记卡片的对应的开奖号码" style="shape=process;whiteSpace=wrap;html=1;backgroundOutline=1;" vertex="1" parent="1">
          <mxGeometry x="-10" y="350" width="120" height="60" as="geometry" />
        </mxCell>
        <mxCell id="AWzn9kfPtikDPwNvXIya-14" value="" style="edgeStyle=orthogonalEdgeStyle;rounded=0;orthogonalLoop=1;jettySize=auto;html=1;entryX=0.5;entryY=0.088;entryDx=0;entryDy=0;entryPerimeter=0;" edge="1" parent="1" target="AWzn9kfPtikDPwNvXIya-16">
          <mxGeometry relative="1" as="geometry">
            <mxPoint x="50" y="80" as="sourcePoint" />
            <mxPoint x="50" y="120" as="targetPoint" />
          </mxGeometry>
        </mxCell>
        <mxCell id="AWzn9kfPtikDPwNvXIya-17" style="edgeStyle=orthogonalEdgeStyle;rounded=0;orthogonalLoop=1;jettySize=auto;html=1;entryX=0.4;entryY=0.1;entryDx=0;entryDy=0;entryPerimeter=0;" edge="1" parent="1" source="AWzn9kfPtikDPwNvXIya-15" target="AWzn9kfPtikDPwNvXIya-38">
          <mxGeometry relative="1" as="geometry">
            <mxPoint x="170" y="80" as="targetPoint" />
          </mxGeometry>
        </mxCell>
        <mxCell id="AWzn9kfPtikDPwNvXIya-40" style="edgeStyle=orthogonalEdgeStyle;rounded=0;orthogonalLoop=1;jettySize=auto;html=1;" edge="1" parent="1" source="AWzn9kfPtikDPwNvXIya-15" target="AWzn9kfPtikDPwNvXIya-39">
          <mxGeometry relative="1" as="geometry" />
        </mxCell>
        <mxCell id="AWzn9kfPtikDPwNvXIya-15" value="结算服务启动" style="ellipse;whiteSpace=wrap;html=1;aspect=fixed;" vertex="1" parent="1">
          <mxGeometry x="10" y="10" width="80" height="80" as="geometry" />
        </mxCell>
        <mxCell id="AWzn9kfPtikDPwNvXIya-19" style="edgeStyle=orthogonalEdgeStyle;rounded=0;orthogonalLoop=1;jettySize=auto;html=1;entryX=0.5;entryY=0;entryDx=0;entryDy=0;" edge="1" parent="1" source="AWzn9kfPtikDPwNvXIya-16" target="AWzn9kfPtikDPwNvXIya-18">
          <mxGeometry relative="1" as="geometry">
            <Array as="points">
              <mxPoint x="50" y="280" />
              <mxPoint x="200" y="280" />
            </Array>
          </mxGeometry>
        </mxCell>
        <mxCell id="AWzn9kfPtikDPwNvXIya-20" value="finshi" style="edgeLabel;html=1;align=center;verticalAlign=middle;resizable=0;points=[];" vertex="1" connectable="0" parent="AWzn9kfPtikDPwNvXIya-19">
          <mxGeometry x="0.1" y="-3" relative="1" as="geometry">
            <mxPoint as="offset" />
          </mxGeometry>
        </mxCell>
        <mxCell id="AWzn9kfPtikDPwNvXIya-16" value="监听奖源&lt;br&gt;WS.game.event&lt;br style=&quot;border-color: var(--border-color);&quot;&gt;获取奖源事件" style="ellipse;shape=cloud;whiteSpace=wrap;html=1;" vertex="1" parent="1">
          <mxGeometry x="-10" y="130" width="120" height="80" as="geometry" />
        </mxCell>
        <mxCell id="AWzn9kfPtikDPwNvXIya-18" value="生成" style="shape=process;whiteSpace=wrap;html=1;backgroundOutline=1;" vertex="1" parent="1">
          <mxGeometry x="260" y="350" width="120" height="60" as="geometry" />
        </mxCell>
        <mxCell id="AWzn9kfPtikDPwNvXIya-26" value="44个球" style="edgeStyle=orthogonalEdgeStyle;rounded=0;orthogonalLoop=1;jettySize=auto;html=1;entryX=1;entryY=0.5;entryDx=0;entryDy=0;" edge="1" parent="1" source="AWzn9kfPtikDPwNvXIya-23" target="AWzn9kfPtikDPwNvXIya-30">
          <mxGeometry relative="1" as="geometry">
            <mxPoint x="-30" y="540" as="targetPoint" />
          </mxGeometry>
        </mxCell>
        <mxCell id="AWzn9kfPtikDPwNvXIya-29" value="" style="edgeStyle=orthogonalEdgeStyle;rounded=0;orthogonalLoop=1;jettySize=auto;html=1;" edge="1" parent="1" source="AWzn9kfPtikDPwNvXIya-23" target="AWzn9kfPtikDPwNvXIya-28">
          <mxGeometry relative="1" as="geometry" />
        </mxCell>
        <mxCell id="AWzn9kfPtikDPwNvXIya-32" value="49个球" style="edgeLabel;html=1;align=center;verticalAlign=middle;resizable=0;points=[];" vertex="1" connectable="0" parent="AWzn9kfPtikDPwNvXIya-29">
          <mxGeometry x="-0.2" y="3" relative="1" as="geometry">
            <mxPoint as="offset" />
          </mxGeometry>
        </mxCell>
        <mxCell id="AWzn9kfPtikDPwNvXIya-35" style="edgeStyle=orthogonalEdgeStyle;rounded=0;orthogonalLoop=1;jettySize=auto;html=1;" edge="1" parent="1" source="AWzn9kfPtikDPwNvXIya-23">
          <mxGeometry relative="1" as="geometry">
            <mxPoint x="50" y="630" as="targetPoint" />
          </mxGeometry>
        </mxCell>
        <mxCell id="AWzn9kfPtikDPwNvXIya-23" value="判断开奖球数" style="rhombus;whiteSpace=wrap;html=1;" vertex="1" parent="1">
          <mxGeometry x="10" y="450" width="80" height="80" as="geometry" />
        </mxCell>
        <mxCell id="AWzn9kfPtikDPwNvXIya-34" style="edgeStyle=orthogonalEdgeStyle;rounded=0;orthogonalLoop=1;jettySize=auto;html=1;" edge="1" parent="1" source="AWzn9kfPtikDPwNvXIya-25" target="AWzn9kfPtikDPwNvXIya-33">
          <mxGeometry relative="1" as="geometry" />
        </mxCell>
        <mxCell id="AWzn9kfPtikDPwNvXIya-25" value="extra卡片计算中奖金额&lt;br&gt;生成历史中奖记录&lt;br&gt;推送中奖弹窗消息" style="whiteSpace=wrap;html=1;" vertex="1" parent="1">
          <mxGeometry x="-180" y="550" width="120" height="60" as="geometry" />
        </mxCell>
        <mxCell id="AWzn9kfPtikDPwNvXIya-36" style="edgeStyle=orthogonalEdgeStyle;rounded=0;orthogonalLoop=1;jettySize=auto;html=1;entryX=0.5;entryY=0;entryDx=0;entryDy=0;" edge="1" parent="1" source="AWzn9kfPtikDPwNvXIya-28" target="AWzn9kfPtikDPwNvXIya-33">
          <mxGeometry relative="1" as="geometry">
            <Array as="points">
              <mxPoint x="210" y="580" />
              <mxPoint x="50" y="580" />
            </Array>
          </mxGeometry>
        </mxCell>
        <mxCell id="AWzn9kfPtikDPwNvXIya-28" value="判断bingo&lt;br&gt;生成奖池记录&lt;br&gt;推送中奖弹窗信息" style="whiteSpace=wrap;html=1;" vertex="1" parent="1">
          <mxGeometry x="150" y="460" width="120" height="60" as="geometry" />
        </mxCell>
        <mxCell id="AWzn9kfPtikDPwNvXIya-31" style="edgeStyle=orthogonalEdgeStyle;rounded=0;orthogonalLoop=1;jettySize=auto;html=1;entryX=0.5;entryY=0;entryDx=0;entryDy=0;" edge="1" parent="1" source="AWzn9kfPtikDPwNvXIya-30" target="AWzn9kfPtikDPwNvXIya-25">
          <mxGeometry relative="1" as="geometry" />
        </mxCell>
        <mxCell id="AWzn9kfPtikDPwNvXIya-30" value="判断jackpot&lt;br&gt;生成奖池记录&lt;br&gt;生成历史中奖记录" style="rounded=0;whiteSpace=wrap;html=1;" vertex="1" parent="1">
          <mxGeometry x="-180" y="460" width="120" height="60" as="geometry" />
        </mxCell>
        <mxCell id="AWzn9kfPtikDPwNvXIya-33" value="排行榜对应数据写入redis&lt;br&gt;nats通知游戏服务推送" style="rounded=0;whiteSpace=wrap;html=1;" vertex="1" parent="1">
          <mxGeometry x="-10" y="640" width="120" height="60" as="geometry" />
        </mxCell>
        <mxCell id="AWzn9kfPtikDPwNvXIya-38" value="监听订单相关&lt;br&gt;order.*" style="ellipse;shape=cloud;whiteSpace=wrap;html=1;" vertex="1" parent="1">
          <mxGeometry x="294" y="130" width="120" height="80" as="geometry" />
        </mxCell>
        <mxCell id="AWzn9kfPtikDPwNvXIya-39" value="监听派彩相关&lt;br&gt;payout.*" style="ellipse;shape=cloud;whiteSpace=wrap;html=1;" vertex="1" parent="1">
          <mxGeometry x="480" y="130" width="120" height="80" as="geometry" />
        </mxCell>
      </root>
    </mxGraphModel>
  </diagram>
</mxfile>
